<?xml version="1.0" encoding="UTF-8"?><svg id="b" xmlns="http://www.w3.org/2000/svg" viewBox="0 0 919.32 943.36"><g id="c"><path d="M604.36,865.14c14.28,38.06-41.9,75.73-128.62,75.73s-142.9-37.67-128.62-75.73c11.68-31.14,68.47-52.53,128.62-52.53s116.94,21.38,128.62,52.53Z" style="fill:#fff; stroke:#fff; stroke-miterlimit:10; stroke-width:5px;"/><path d="M612.73,220.67C560.67,56.21,385.14-34.91,220.67,17.15,56.21,69.21-34.91,244.73,17.15,409.2c19.07,60.25,54.72,110.63,100.32,147.76,78.82,66.78,153.92,82.37,288.66,160.72,10.23,8.6,24.51,11.95,38.2,7.62.12-.04.23-.08.34-.12.12-.04.23-.07.35-.1,13.69-4.33,23.44-15.29,26.85-28.21,63.26-137.59,114.57-194.33,141.32-289.13,18.38-58.89,19.56-123.79-.47-187.06ZM361.18,455.51c-80.91,25.61-167.26-19.22-192.87-100.13-25.61-80.91,19.22-167.26,100.13-192.87,80.91-25.61,167.26,19.22,192.87,100.13,25.61,80.91-19.22,167.26-100.13,192.87Z" style="fill:#fff; stroke:#fff; stroke-miterlimit:10; stroke-width:5px;"/><circle cx="684.72" cy="661.22" r="65.97" style="fill:#fff; stroke:#fff; stroke-miterlimit:10; stroke-width:5px;"/><path d="M721.93,561.17h0c-31.86-9.88-50.73-42.64-43.27-75.15l68.41-298.21c8.29-36.16,45.59-57.62,81.02-46.64l43.82,13.58c35.43,10.98,54.04,49.78,40.44,84.29l-112.23,284.63c-12.24,31.03-46.32,47.39-78.19,37.51Z" style="fill:#fff; stroke:#fff; stroke-miterlimit:10; stroke-width:5px;"/></g></svg>